<svg xmlns="http://www.w3.org/2000/svg" xmlns:lucid="lucid" width="290.48" height="265.64"><g lucid:page-tab-id="VDdJok4AUlPx"><path d="M.47 143.7c0-20.44 16.56-37 37-37h215.76c20.44 0 37 16.56 37 37v.15c0 20.44-16.56 37-37 37H37.47c-20.44 0-37-16.56-37-37z" stroke="#000" stroke-opacity="0" fill="#4169e1"/><path d="M134.56 9.12c6.7-3.84 17.6-3.84 24.3 0L249.67 61c6.72 3.84 12.16 13.22 12.16 20.95V185.5c0 7.74-5.44 17.12-12.15 20.96l-90.8 51.88c-6.7 3.84-17.6 3.84-24.3 0l-90.8-51.88c-6.72-3.84-12.16-13.22-12.16-20.95V81.96c0-7.73 5.45-17.1 12.16-20.95z" stroke="#000" stroke-opacity="0" fill="#fff"/><path d="M139.27 23.56c3.86-2.15 10.1-2.15 13.97 0l85.83 47.9c3.86 2.16 7 7.48 7 11.9v95.4c0 4.42-3.14 9.75-7 11.9l-85.83 47.9c-3.86 2.16-10.1 2.16-13.97 0l-85.83-47.9c-3.85-2.15-6.98-7.48-6.98-11.9v-95.4c0-4.42 3.13-9.74 6.98-11.9z" stroke="#000" stroke-opacity="0" fill="#87cefa"/><path d="M6.97 140.5c0-14.45 11.7-26.16 26.16-26.16h224.45c14.44 0 26.15 11.7 26.15 26.15 0 14.44-11.7 26.15-26.15 26.15H33.13c-14.45 0-26.16-11.7-26.16-26.16zM157.77 22.72c-1.98-2-1.55-2.6.97-1.33 2.5 1.26 2.5 1.26 0 0l-10.8-5.44c-1.58-.8-1.86-.43-.6.84 1.26 1.27 1.26 1.27 0 0l-7.8-7.86c-1.98-2-5.63-2.6-8.15-1.33-2.53 1.28-5.58 4.36-6.84 6.88v.02l-4.57 9.2c-1.26 2.53-2.28 6.88-2.28 9.7v29.33c0 3.8-.75 9.9-1.66 13.58l-.98 3.93c-1.06 4.3 1.66 7.77 6.08 7.77h51.21c2.54 0 4.6-2.06 4.6-4.6V69.62 53.54c0-1.26-.62-3.12-1.37-4.13l-10.93-14.68c-.76-1.02-1.38-2.87-1.38-4.14 0-1.27-.73-3.03-1.62-3.93z" stroke="#000" stroke-opacity="0" fill="#fff"/><path d="M137.82 1.25c-2.6.53-6.96 2.12-9.56 3.44-13.9 7.14-87.8 51.05-90.7 53.7-1.74 1.85-5.22 6.88-7.24 11.1-3.48 7.15-3.77 8.74-4.35 24.1L25.4 110l-5.23 1.84c-6.95 2.9-15.35 12.44-18.25 20.64-2.6 7.67-1.74 19.05 1.74 26.2 2.6 5.02 12.46 15.07 14.77 15.07.87 0 1.16.53.87 1.06-.58.54 0 1.07.87 1.07 4.93-.27 5.5.26 6.1 7.4 1.15 9.26 5.5 18 11.87 24.34 4.35 4.25 72.15 44.73 90.7 54.25 6.66 3.44 17.38 4.5 25.5 2.38 7.53-1.85 89.24-48.68 97.35-56.1 6.95-6.07 10.72-13.2 12.16-23.8 1.45-7.67 1.45-8.2 5.8-9.52 6.66-2.1 16.52-12.7 18.83-20.63 2.9-7.93 2.02-19.3-1.45-26.45-2.9-6.1-12.17-14.56-17.97-16.4l-3.77-1.33-.57-16.4c-.58-15.36-.87-16.68-4.63-24.35-2.32-5.03-5.5-9.53-8.98-12.17-5.22-4.5-83.17-50-91.28-53.45-6.1-2.64-15.36-3.7-22.02-2.38zm22.02 10.06c8.7 4.5 82.58 47.63 86.35 50.54 2.02 1.32 5.2 5.82 7.23 9.26 3.48 6.08 3.77 7.67 4.06 22.22l.28 15.6H152.02V93.06h13.33c10.72 0 13.32-.53 13.9-2.12.3-1.06.58-11.9.58-24.34 0-20.64 0-22.75-2.3-24.6-8.13-7.15-8.42-7.4-8.42-13.23 0-7.15-3.18-10.32-10.13-10.32-3.48 0-5.5-1.06-8.4-3.7-4.93-5.03-4.64-7.94.58-6.88 2.02.53 6.08 2.1 8.7 3.44zm-18.55 1.33c1.73 6.35 8.1 11.38 15.93 12.43 3.77.27 4.06.53 4.64 5.82.58 6.1 3.48 11.12 7.82 14.03l2.9 1.86-.3 19.84-.3 19.58h-19.4l-.3-3.7c-.57-6.62-1.44-8.74-4.34-9.8-5.22-2.64-8.4.27-9.27 7.4-.6 6.1-.6 6.1-4.94 6.1h-4.06l-.58-36.78-.3-37.04 3.5-1.85c4.92-2.63 7.82-1.84 8.97 2.13zm-19.13 72.75c0 .8-1.16 1.6-2.32 1.6-1.45 0-1.74-3.98-1.74-29.37 0-25.92.3-30.16 2.04-33.6 2.03-3.7 2.03-3.17 2.6 28.05 0 17.46 0 32.28-.57 33.33zm-9.85-60.05c-.58 1.85-.87 17.72-.87 35.2v31.73l13.04.53 13.03.26v15.86H32.92v-13.5c0-16.13 1.45-20.9 7.25-28.83 3.76-4.76 9.27-8.47 37.96-25.13 18.25-10.6 33.6-19.32 34.2-19.32.57 0 .57 1.33 0 3.18zM167.37 133c.3 3.18.58 8.2 1.16 11.12l.58 5.3h5.52c3.47 0 5.2.52 5.8 1.58 1.73 4.76-1.75 6.88-10.73 6.88-7.83 0-8.12-.53-9-16.4-.28-12.97-.28-14.03 1.75-14.56 4.05-1.06 4.63-.26 4.92 6.1zM41.9 134.87c.6 7.94-.57 11.9-4.05 11.9-2.9 0-2.9-.26-.58 6.1 2.6 7.13 2.32 7.4-1.45 7.4-2.9 0-4.06-1.06-6.95-6.35l-3.48-6.34-1.17 6.35c-.87 6.1-1.16 6.62-4.35 6.1l-3.18-.27-.3-12.97c-.57-19.3-1.44-18.25 13.05-18.25h11.88l.58 6.36zm24.35-.27c.58.52 1.15 5.55 1.44 11.37.86 9.8.57 10.58-1.74 11.64-2.6 1.6-16.8.54-19.13-1.3-.87-.54-1.74-3.45-1.74-5.83 0-4.23.57-5.03 3.18-6.1 1.74-.78 5.22-1.3 8.1-1.3 3.2 0 4.65-.27 4.65-1.86 0-1.3-1.74-1.58-7.24-1.58-7.26 0-9.3-1.32-8.13-4.5.58-1.32 3.2-1.85 10.43-1.85 5.22 0 9.86.53 10.15 1.32zm77.65 8.46c.87 6.1.87 9.8-.3 11.9-1.15 2.92-1.73 2.92-10.7 2.65l-9.28-.25-.58-10.32c-.3-13.23.3-14.02 11.3-13.5l8.7.54.86 9zm59.98-6.6c.58 1.04.87 3.95.58 6.86-.87 5.03-1.16 5.3-5.2 5.83-6.4.26-9.57 1.32-9.57 2.64 0 .78 2.6 1.3 6.94.78 6.37-.26 6.95 0 7.24 2.4.58 2.63 0 2.9-7.82 2.9-4.35 0-8.98-.53-9.85-1.06-1.73-1.06-3.18-14.3-2.02-19.05.58-2.38 1.45-3.18 5.22-3.44 6.37-.8 12.75.26 14.48 2.12zm52.45-1.6c.58.8 1.45 6.08 1.45 11.64.58 9.26.3 10.05-2.03 11.1-3.2 1.6-18.25.28-20-1.58-.57-.8-.86-3.7-.28-6.6.58-3.98 1.16-5.04 4.34-5.57 2.04-.26 5.23-.8 6.97-.8 2.32 0 3.48-.52 3.48-1.84 0-1.3-1.45-1.58-7.25-1.58-6.08 0-7.24-.53-7.24-2.38 0-1.06.3-2.65.87-2.9 1.45-1.6 18.25-1.07 19.7.52zm9.56-.27c.86.52 2.02 4.23 2.3 8.46l.88 7.4h4.64c4.34 0 4.63.27 4.34 2.65-.3 2.4-1.45 2.92-6.95 3.98-3.47.53-6.95.53-7.53 0-.57-.53-1.15-6.08-1.73-12.43-.58-11.64 0-12.97 4.05-10.06zm-186.6 2.38c.27.52 2.3 3.7 4.62 7.4 2.32 3.44 4.35 6.1 4.64 5.82 0-.26 0-2.9-.58-5.82-1.45-6.88-.87-8.46 2.9-8.46 2.9 0 2.9 0 2.9 10.84 0 10.85 0 11.12-2.9 11.12-2.32 0-4.35-1.86-7.54-6.35l-4.63-6.1-.57 3.98c-.58 7.68-1.45 9.8-3.77 9.8-2.32 0-2.32-1.06-2.32-11.38 0-6.6.3-11.9.58-12.43.87-.8 5.5.25 6.67 1.58zm40.55-.53c-.3 1.32-.58 2.38-.58 2.9 0 .54-3.18.54-7.24.27-6.38-.26-6.96-.26-7.83 2.38-.28 1.6-.86 4.5-.86 6.35 0 3.18.58 3.44 4.92 3.44 2.6 0 4.93-.8 4.93-1.33 0-.8-1.17-1.06-2.33-1.06-2.9 0-3.48-3.16-.58-4.22 4.05-1.6 7.8-.8 7.8 1.58 0 1.06.3 4.77.6 7.94.86 5.03.57 5.56-1.75 5.56-1.44 0-2.6-.8-2.6-1.85 0-1.32-1.45-1.58-7.83-.8l-7.53.54-.88-3.7c-.58-3.44-.58-16.94 0-18.52 0-.53 5.22-.8 11.3-1.06 9.85-.27 11.3 0 10.43 1.6zm111.85 0c-.3 1.32-.87 2.38-.87 2.9 0 .54-2.9.54-6.95.27-6.67-.26-7.25-.26-7.83 2.38-.58 1.6-.87 4.5-.87 6.35 0 3.18.3 3.44 4.93 3.44 2.62 0 4.65-.8 4.65-1.33 0-.8-.87-1.06-2.32-1.06-2.9 0-3.2-3.16-.58-4.22 4.06-1.6 7.82-.8 7.82 1.58 0 1.06.3 4.77.87 7.94.58 5.03.58 5.56-2.03 5.56-1.44 0-2.3-.8-2.3-1.85 0-1.32-1.45-1.58-7.83-.8l-7.82.54-.87-3.7c-.58-3.44-.58-16.94.3-18.52 0-.53 5.2-.8 11.3-1.06 9.55-.27 11 0 10.42 1.6zm25.5 47.1c-.87 7.4-4.06 14-9.56 19.3-2.03 1.85-23.47 15.08-47.52 29.37l-43.76 25.4h-22.02l-43.46-25.4c-32.75-19.05-45.2-27-48.97-30.95-5.2-5.56-8.98-14.3-8.98-20.38v-3.45h225.15l-.87 6.1z" stroke="#000" stroke-opacity="0" stroke-width=".13" fill="#4169e1"/><path d="M27.42 134.33c-4.06.26-4.93 1.85-3.48 5.56.58 1.57 2.6 2.1 6.95 2.1 3.18 0 5.8-.53 5.8-1.06 0-2.9-2.62-7.67-3.78-7.4-.87 0-3.47.53-5.5.8zM52.63 149.4c-2.6 2.92-1.45 3.45 4.92 3.45 5.22 0 6.1-.27 5.5-2.12-.28-2.64-8.1-3.44-10.42-1.32zM128.83 142.53c0 7.14 2.03 10.32 6.1 10.32h3.76V138.3h-4.94c-4.64 0-4.93 0-4.93 4.23zM190.55 142c-.58 2.12 0 2.38 4.64 2.38 3.76 0 5.5-.53 5.5-1.58 0-3.97-9.28-4.5-10.15-.8zM242.7 149.4c-3.18 1.86-1.15 3.45 4.65 3.45 4.63 0 5.5-.27 5.2-2.12-.57-2.38-6.65-3.17-9.84-1.32z" stroke="#000" stroke-opacity="0" stroke-width=".13" fill="#4169e1"/><path d="M84.12 94.04c0 .8-.64 1.44-1.43 1.44-.8 0-1.45-.65-1.45-1.44 0-.8.65-1.45 1.44-1.45.78 0 1.42.64 1.42 1.44zM102.36 75.66c0 .8-.65 1.45-1.44 1.45-.8 0-1.44-.64-1.44-1.44 0-.8.65-1.44 1.44-1.44.8 0 1.44.64 1.44 1.44zM226.42 94.13c0 .8-.64 1.44-1.44 1.44-.8 0-1.43-.64-1.43-1.44 0-.8.64-1.45 1.43-1.45.8 0 1.44.65 1.44 1.45zM193.5 57.3c0 .8-.63 1.44-1.42 1.44-.8 0-1.44-.65-1.44-1.45 0-.8.64-1.46 1.44-1.46.8 0 1.43.65 1.43 1.45zM182.4 99.17c0 .8-.64 1.44-1.43 1.44-.8 0-1.44-.64-1.44-1.43 0-.8.64-1.45 1.44-1.45.8 0 1.43.65 1.43 1.45zM193.5 188.1c0 .8-.63 1.44-1.42 1.44-.8 0-1.44-.65-1.44-1.45 0-.8.64-1.46 1.44-1.46.8 0 1.43.65 1.43 1.45zM167.44 204.27c0 .8-.64 1.45-1.43 1.45-.8 0-1.43-.65-1.43-1.45 0-.8.64-1.44 1.44-1.44.8 0 1.44.65 1.44 1.44zM138.82 222.65c0 .8-.64 1.44-1.44 1.44-.8 0-1.43-.65-1.43-1.45 0-.8.64-1.45 1.43-1.45.8 0 1.44.65 1.44 1.45zM138.82 185.9c0 .8-.64 1.45-1.44 1.45-.8 0-1.43-.65-1.43-1.45 0-.8.64-1.45 1.43-1.45.8 0 1.44.65 1.44 1.45zM234.7 182.3c0 .8-.65 1.45-1.44 1.45-.8 0-1.43-.65-1.43-1.45 0-.8.64-1.45 1.43-1.45.8 0 1.44.65 1.44 1.45zM65.9 184.16c0 .8-.65 1.44-1.44 1.44-.8 0-1.44-.65-1.44-1.44 0-.8.64-1.45 1.44-1.45.8 0 1.43.66 1.43 1.46zM109.75 196.55c0 .8-.64 1.45-1.43 1.45-.8 0-1.44-.65-1.44-1.45 0-.8.64-1.44 1.44-1.44.8 0 1.43.65 1.43 1.45zM122.55 105.25c0 .8-.64 1.44-1.44 1.44-.78 0-1.42-.66-1.42-1.45 0-.8.64-1.45 1.43-1.45.8 0 1.45.65 1.45 1.45zM162.55 228.08c0 .8-.64 1.45-1.44 1.45-.78 0-1.42-.65-1.42-1.45 0-.8.64-1.45 1.43-1.45.8 0 1.45.65 1.45 1.45zM61.2 89.8c0 .8-.63 1.46-1.43 1.46-.8 0-1.43-.65-1.43-1.45 0-.8.64-1.43 1.43-1.43.8 0 1.44.64 1.44 1.44zM202.55 89.8c0 .8-.64 1.46-1.44 1.46-.78 0-1.42-.65-1.42-1.45 0-.8.64-1.43 1.43-1.43.8 0 1.45.64 1.45 1.44zM82.55 69.8c0 .8-.64 1.46-1.44 1.46-.78 0-1.42-.65-1.42-1.45 0-.8.64-1.43 1.43-1.43.8 0 1.45.64 1.45 1.44zM222.55 69.8c0 .8-.64 1.46-1.44 1.46-.78 0-1.42-.65-1.42-1.45 0-.8.64-1.43 1.43-1.43.8 0 1.45.64 1.45 1.44zM90.27 187.14c0 .8-.65 1.44-1.44 1.44-.8 0-1.43-.65-1.43-1.44 0-.8.64-1.45 1.43-1.45.8 0 1.44.64 1.44 1.44zM142.55 209.8c0 .8-.64 1.46-1.44 1.46-.78 0-1.42-.65-1.42-1.45 0-.8.64-1.43 1.43-1.43.8 0 1.45.64 1.45 1.44zM197.35 209.8c0 .8-.64 1.46-1.43 1.46-.8 0-1.44-.65-1.44-1.45 0-.8.64-1.43 1.44-1.43.8 0 1.43.64 1.43 1.44z" stroke="#000" stroke-opacity="0" fill="#fff"/></g></svg>