<svg width="62" height="25" viewBox="0 0 62 25" fill="none" xmlns="http://www.w3.org/2000/svg">
<path d="M11.718 13.724C11.358 14.888 10.728 15.758 9.828 16.334C8.928 16.898 7.878 17.18 6.678 17.18C5.502 17.18 4.482 16.934 3.618 16.442C2.766 15.95 2.106 15.248 1.638 14.336C1.182 13.424 0.954 12.332 0.954 11.06C0.954 9.788 1.188 8.696 1.656 7.784C2.124 6.872 2.784 6.17 3.636 5.678C4.488 5.186 5.49 4.94 6.642 4.94C7.854 4.94 8.892 5.198 9.756 5.714C10.632 6.218 11.232 6.986 11.556 8.018L9.306 8.972C9.102 8.252 8.79 7.742 8.37 7.442C7.95 7.13 7.41 6.974 6.75 6.974C5.766 6.974 4.98 7.328 4.392 8.036C3.816 8.732 3.528 9.74 3.528 11.06C3.528 12.368 3.804 13.376 4.356 14.084C4.908 14.792 5.706 15.146 6.75 15.146C7.398 15.146 7.956 14.972 8.424 14.624C8.904 14.276 9.24 13.748 9.432 13.04L11.718 13.724ZM13.5831 17V8H15.7251L15.8871 9.764C16.1151 9.152 16.4571 8.678 16.9131 8.342C17.3811 7.994 17.9691 7.82 18.6771 7.82C19.0971 7.82 19.4211 7.886 19.6491 8.018L19.3611 10.088C19.2411 10.052 19.0911 10.022 18.9111 9.998C18.7431 9.962 18.5211 9.944 18.2451 9.944C17.8731 9.944 17.5191 10.034 17.1831 10.214C16.8591 10.382 16.5891 10.646 16.3731 11.006C16.1571 11.354 16.0491 11.798 16.0491 12.338V17H13.5831ZM25.1051 7.82C26.0051 7.82 26.8031 8.006 27.4991 8.378C28.1951 8.75 28.7351 9.284 29.1191 9.98C29.5151 10.676 29.7131 11.516 29.7131 12.5C29.7131 13.484 29.5151 14.324 29.1191 15.02C28.7351 15.716 28.1951 16.25 27.4991 16.622C26.8031 16.994 26.0051 17.18 25.1051 17.18C24.1931 17.18 23.3891 16.994 22.6931 16.622C22.0091 16.25 21.4691 15.716 21.0731 15.02C20.6891 14.324 20.4971 13.484 20.4971 12.5C20.4971 11.516 20.6891 10.676 21.0731 9.98C21.4691 9.284 22.0091 8.75 22.6931 8.378C23.3891 8.006 24.1931 7.82 25.1051 7.82ZM25.1051 9.656C24.4331 9.656 23.9051 9.896 23.5211 10.376C23.1491 10.844 22.9631 11.552 22.9631 12.5C22.9631 13.448 23.1491 14.162 23.5211 14.642C23.9051 15.11 24.4331 15.344 25.1051 15.344C25.7651 15.344 26.2811 15.11 26.6531 14.642C27.0371 14.162 27.2291 13.448 27.2291 12.5C27.2291 11.552 27.0371 10.844 26.6531 10.376C26.2811 9.896 25.7651 9.656 25.1051 9.656ZM31.7765 17V8H33.9905L34.0805 9.692C34.3565 9.068 34.7585 8.6 35.2865 8.288C35.8265 7.976 36.4445 7.82 37.1405 7.82C38.0765 7.82 38.8505 8.096 39.4625 8.648C40.0745 9.188 40.3805 10.004 40.3805 11.096V17H37.9145V11.798C37.9145 11.03 37.7585 10.502 37.4465 10.214C37.1465 9.914 36.7625 9.764 36.2945 9.764C35.9585 9.764 35.6285 9.848 35.3045 10.016C34.9925 10.172 34.7345 10.43 34.5305 10.79C34.3385 11.15 34.2425 11.63 34.2425 12.23V17H31.7765ZM47.025 7.82C47.925 7.82 48.723 8.006 49.419 8.378C50.115 8.75 50.655 9.284 51.039 9.98C51.435 10.676 51.633 11.516 51.633 12.5C51.633 13.484 51.435 14.324 51.039 15.02C50.655 15.716 50.115 16.25 49.419 16.622C48.723 16.994 47.925 17.18 47.025 17.18C46.113 17.18 45.309 16.994 44.613 16.622C43.929 16.25 43.389 15.716 42.993 15.02C42.609 14.324 42.417 13.484 42.417 12.5C42.417 11.516 42.609 10.676 42.993 9.98C43.389 9.284 43.929 8.75 44.613 8.378C45.309 8.006 46.113 7.82 47.025 7.82ZM47.025 9.656C46.353 9.656 45.825 9.896 45.441 10.376C45.069 10.844 44.883 11.552 44.883 12.5C44.883 13.448 45.069 14.162 45.441 14.642C45.825 15.11 46.353 15.344 47.025 15.344C47.685 15.344 48.201 15.11 48.573 14.642C48.957 14.162 49.149 13.448 49.149 12.5C49.149 11.552 48.957 10.844 48.573 10.376C48.201 9.896 47.685 9.656 47.025 9.656ZM53.0865 17V15.416L57.0825 10.808L58.1085 9.782L56.6145 9.818H53.1225V8H60.8445V9.584L56.8665 14.174L55.8405 15.218L57.4785 15.182H60.9885V17H53.0865Z" fill="#314584"/>
<rect x="19" y="21" width="24" height="4" fill="#FF3946"/>
</svg>
