<svg xmlns="http://www.w3.org/2000/svg" xmlns:xlink="http://www.w3.org/1999/xlink" xmlns:lucid="lucid" width="795" height="250"><g transform="translate(-14 -14)" lucid:page-tab-id="4i_LUtFZd_91"><path d="M0 26c0-3.3 2.7-6 6-6h628c3.3 0 6 2.7 6 6v243.85c0 3.3-2.7 6-6 6H6c-3.3 0-6-2.7-6-6z" stroke="#000" stroke-opacity="0" stroke-width="3" fill-opacity="0"/><use xlink:href="#a" transform="matrix(1,0,0,1,5,25) translate(0 172.99999999999994)"/><path d="M719.03 170.9c-1.53 2.93-.1 5.3 3.22 5.3h42.16c3.32 0 4.65-2.3 3-5.17l-85-145.85c-1.68-2.86-.34-5.18 2.97-5.18H802.5c3.32 0 4.95 2.47 3.66 5.52l-33.3 78.3c-1.3 3.04-3.73 3.2-5.44.37l-8.82-14.72c-1.7-2.85-1.93-7.57-.5-10.56l16.58-34.76c1.43-3-.1-5.4-3.42-5.4h-48.4c-3.3 0-4.65 2.3-2.98 5.17l85 145.84c1.66 2.86.33 5.2-2.98 5.2H685.37c-3.3 0-4.76-2.4-3.23-5.34l36.72-70.58c1.53-2.94 4.05-2.96 5.63-.05l8.15 15.06c1.58 2.9 1.62 7.65.08 10.6z" stroke="#314584" stroke-width="3" fill="#314584"/><path d="M721 43.2c-1.42-1.68-.78-3.04 1.43-3.04h49.95c2.2 0 2.84 1.36 1.4 3.05L750 71.3c-1.42 1.68-3.74 1.68-5.17 0zM763.84 172.74c3.1 1.18 2.92 2.14-.4 2.14h-40.27c-3.32 0-3.5-.96-.4-2.14l14.93-5.7c3.1-1.2 8.12-1.2 11.2 0zM750.25 77.33c0 1.66-1.34 3-3 3-1.65 0-3-1.34-3-3s1.35-3 3-3c1.66 0 3 1.34 3 3zM746.94 157.33c0 1.66-1.35 3-3 3-1.66 0-3-1.34-3-3s1.34-3 3-3c1.65 0 3 1.34 3 3zM280 226c0-3.3 2.7-6 6-6h248c3.3 0 6 2.7 6 6v28c0 3.3-2.7 6-6 6H286c-3.3 0-6-2.7-6-6z" stroke="#000" stroke-opacity="0" stroke-width="3" fill="#ff3946"/><defs><path fill="#314584" d="M774-588H195c-4 0-7 3-7 7v442c0 4 3 7 7 7h579V0H195C118 0 56-62 56-139v-442c0-77 62-139 139-139h579v132" id="b"/><path fill="#314584" d="M190-580h322v131H190c-4 0-7 3-7 7V0H52v-442c0-76 62-138 138-138" id="c"/><path fill="#314584" d="M189-580h313c76 0 138 62 138 138v304C640-62 578 0 502 0H189C113 0 51-62 51-138v-304c0-76 62-138 138-138zm313 131H189c-4 0-7 3-7 7v304c0 4 3 7 7 7h313c4 0 7-3 7-7v-304c0-4-3-7-7-7" id="d"/><path fill="#314584" d="M505-580c76 0 138 62 138 138V0H512v-442c0-4-3-7-7-7H192c-4 0-7 3-7 7V0H54v-580h451" id="e"/><g id="a"><use transform="matrix(0.19999999999999973,0,0,0.19999999999999973,0,0)" xlink:href="#b"/><use transform="matrix(0.19999999999999973,0,0,0.19999999999999973,164.39999999999978,0)" xlink:href="#c"/><use transform="matrix(0.19999999999999973,0,0,0.19999999999999973,269.99999999999966,0)" xlink:href="#d"/><use transform="matrix(0.19999999999999973,0,0,0.19999999999999973,402.9999999999995,0)" xlink:href="#e"/><use transform="matrix(0.19999999999999973,0,0,0.19999999999999973,541.1999999999994,0)" xlink:href="#d"/></g></defs></g></svg>